<svg width="895" height="657" viewBox="0 0 895 657" fill="none" xmlns="http://www.w3.org/2000/svg">
<path d="M584 85.5C540.333 133 454.8 255 462 363" stroke="url(#paint0_linear_16_227)"/>
<path d="M522.5 102.5C478.833 150 445.8 264.5 453 372.5" stroke="url(#paint1_linear_16_227)"/>
<path d="M471 101C452 167 436.5 338.5 436.5 392.5" stroke="url(#paint2_linear_16_227)"/>
<path d="M303.5 95C347.167 142.5 428.2 287.5 421 395.5" stroke="url(#paint3_linear_16_227)"/>
<path d="M365 95C408.667 142.5 437.2 297 430 405" stroke="url(#paint4_linear_16_227)"/>
<path d="M414 98C433.253 170.332 435 351.819 435 411" stroke="url(#paint5_linear_16_227)"/>
<ellipse cx="452" cy="492" rx="271" ry="165" fill="url(#paint6_radial_16_227)"/>
<circle cx="277" cy="22" r="22" fill="#251C31"/>
<circle cx="332" cy="22" r="22" fill="#251C31"/>
<circle cx="387" cy="22" r="22" fill="#251C31"/>
<circle cx="445" cy="22" r="22" fill="#251C31"/>
<circle cx="305" cy="83" r="22" fill="#251C31"/>
<circle cx="552" cy="22" r="22" fill="#251C31"/>
<circle cx="607" cy="22" r="22" fill="#251C31"/>
<circle cx="497" cy="22" r="22" fill="#251C31"/>
<circle cx="417" cy="83" r="22" fill="#251C31"/>
<circle cx="472" cy="83" r="22" fill="#251C31"/>
<circle cx="531" cy="83" r="22" fill="#251C31"/>
<circle cx="586" cy="83" r="22" fill="#251C31"/>
<circle cx="365" cy="83" r="22" fill="#251C31"/>
<circle cx="440" cy="441" r="90" fill="url(#paint7_linear_16_227)"/>
<path d="M880.5 494.5C880.5 512.832 868.33 530.393 846.091 546.448C823.862 562.494 791.665 576.966 751.835 589.128C672.179 613.449 562.105 628.5 440.5 628.5C318.895 628.5 208.821 613.449 129.165 589.128C89.3346 576.966 57.1376 562.494 34.9093 546.448C12.6695 530.393 0.5 512.832 0.5 494.5C0.5 476.168 12.6695 458.607 34.9093 442.552C57.1376 426.506 89.3346 412.034 129.165 399.872C208.821 375.551 318.895 360.5 440.5 360.5C562.105 360.5 672.179 375.551 751.835 399.872C791.665 412.034 823.862 426.506 846.091 442.552C868.33 458.607 880.5 476.168 880.5 494.5Z" stroke="url(#paint8_linear_16_227)"/>
<path d="M826.5 494.5C826.5 512.863 815.931 530.427 796.661 546.469C777.393 562.509 749.482 576.975 714.949 589.134C645.886 613.451 550.445 628.5 445 628.5C339.555 628.5 244.114 613.451 175.051 589.134C140.518 576.975 112.607 562.509 93.3393 546.469C74.0687 530.427 63.5 512.863 63.5 494.5C63.5 476.137 74.0687 458.573 93.3393 442.531C112.607 426.491 140.518 412.025 175.051 399.866C244.114 375.549 339.555 360.5 445 360.5C550.445 360.5 645.886 375.549 714.949 399.866C749.482 412.025 777.393 426.491 796.661 442.531C815.931 458.573 826.5 476.137 826.5 494.5Z" stroke="url(#paint9_linear_16_227)"/>
<path d="M802.5 494.5C802.5 512.882 792.877 530.45 775.354 546.485C757.831 562.52 732.448 576.983 701.039 589.14C638.225 613.452 551.414 628.5 455.5 628.5C359.586 628.5 272.775 613.452 209.961 589.14C178.552 576.983 153.169 562.52 135.646 546.485C118.123 530.45 108.5 512.882 108.5 494.5C108.5 476.118 118.123 458.55 135.646 442.515C153.169 426.48 178.552 412.017 209.961 399.86C272.775 375.548 359.586 360.5 455.5 360.5C551.414 360.5 638.225 375.548 701.039 399.86C732.448 412.017 757.831 426.48 775.354 442.515C792.877 458.55 802.5 476.118 802.5 494.5Z" stroke="url(#paint10_linear_16_227)"/>
<path d="M597.5 425.5C597.5 501.114 529.275 562.5 445 562.5C360.725 562.5 292.5 501.114 292.5 425.5C292.5 349.886 360.725 288.5 445 288.5C529.275 288.5 597.5 349.886 597.5 425.5Z" stroke="url(#paint11_linear_16_227)"/>
<path d="M591.5 461C591.5 483.38 575.177 503.746 548.555 518.546C521.95 533.336 485.162 542.5 444.5 542.5C403.838 542.5 367.05 533.336 340.445 518.546C313.823 503.746 297.5 483.38 297.5 461C297.5 438.62 313.823 418.254 340.445 403.454C367.05 388.664 403.838 379.5 444.5 379.5C485.162 379.5 521.95 388.664 548.555 403.454C575.177 418.254 591.5 438.62 591.5 461Z" stroke="url(#paint12_linear_16_227)"/>
<path d="M853.093 448.749C853.093 447.196 851.426 445.725 848.87 444.813C849.46 441.776 849.198 439.358 848.043 438.584C847.763 438.401 847.446 438.309 847.125 438.317V439.382C847.314 439.382 847.465 439.426 847.593 439.507C848.149 439.88 848.391 441.297 848.203 443.122C848.158 443.571 848.084 444.044 847.994 444.526C847.138 444.285 846.269 444.112 845.393 444.006C844.872 443.166 844.302 442.368 843.69 441.617C845.025 440.17 846.278 439.378 847.131 439.378V438.312C846.004 438.312 844.529 439.249 843.038 440.872C841.548 439.26 840.073 438.332 838.947 438.332V439.396C839.795 439.396 841.052 440.185 842.388 441.622C841.814 442.325 841.241 443.122 840.696 444.006C839.818 444.11 838.948 444.286 838.091 444.531C838.001 444.074 837.929 443.612 837.878 443.146C837.685 441.321 837.923 439.903 838.476 439.526C838.598 439.44 838.758 439.401 838.947 439.401V438.337C838.603 438.337 838.291 438.423 838.022 438.603C836.87 439.378 836.613 441.789 837.206 444.818C834.659 445.736 833 447.201 833 448.749C833 450.301 834.667 451.772 837.223 452.683C836.633 455.722 836.895 458.139 838.05 458.912C838.316 459.094 838.628 459.18 838.971 459.18C840.098 459.18 841.572 458.244 843.063 456.62C844.554 458.234 846.028 459.16 847.155 459.16C847.478 459.168 847.797 459.076 848.08 458.893C849.231 458.12 849.489 455.708 848.895 452.679C851.435 451.767 853.093 450.296 853.093 448.749ZM847.76 445.563C847.601 446.201 847.417 446.831 847.208 447.449C846.865 446.673 846.489 445.917 846.081 445.185C846.663 445.286 847.224 445.41 847.761 445.563H847.76ZM845.885 450.65C845.578 451.274 845.249 451.883 844.898 452.474C843.669 452.601 842.433 452.602 841.204 452.479C840.499 451.305 839.882 450.062 839.361 448.763C839.882 447.462 840.495 446.214 841.196 445.034C842.425 444.907 843.66 444.905 844.889 445.028C845.229 445.596 845.562 446.203 845.881 446.844C846.192 447.469 846.475 448.103 846.733 448.744C846.472 449.392 846.189 450.028 845.885 450.65ZM847.208 450.029C847.429 450.668 847.618 451.309 847.773 451.93C847.237 452.083 846.671 452.212 846.086 452.311C846.492 451.573 846.866 450.811 847.208 450.029ZM843.055 455.125C842.674 454.666 842.293 454.156 841.916 453.596C842.285 453.616 842.661 453.63 843.042 453.63C843.428 453.63 843.808 453.621 844.181 453.596C843.813 454.156 843.432 454.666 843.055 455.125ZM840.007 452.311C839.443 452.216 838.883 452.09 838.328 451.934C838.48 451.318 838.668 450.683 838.881 450.048C839.049 450.429 839.226 450.812 839.418 451.194C839.611 451.576 839.807 451.949 840.007 452.311ZM843.034 442.372C843.415 442.831 843.796 443.342 844.173 443.901C843.804 443.882 843.428 443.867 843.047 443.867C842.661 443.867 842.281 443.877 841.908 443.901C842.276 443.342 842.657 442.831 843.034 442.372ZM840.003 445.186C839.597 445.923 839.223 446.683 838.881 447.464C838.666 446.841 838.478 446.207 838.316 445.563C838.852 445.414 839.418 445.286 840.003 445.186ZM836.297 451.165C834.847 450.445 833.909 449.498 833.909 448.749C833.909 447.999 834.847 447.048 836.297 446.332C836.649 446.155 837.034 445.997 837.431 445.85C837.665 446.785 837.972 447.76 838.352 448.758C837.993 449.698 837.69 450.665 837.444 451.652C837.055 451.512 836.672 451.349 836.297 451.165ZM838.5 457.99C837.944 457.619 837.702 456.199 837.89 454.375C837.935 453.926 838.009 453.453 838.099 452.97C838.902 453.2 839.778 453.377 840.7 453.492C841.222 454.331 841.791 455.129 842.404 455.88C841.068 457.327 839.815 458.12 838.963 458.12C838.802 458.122 838.643 458.077 838.5 457.991V457.99ZM848.216 454.351C848.408 456.176 848.17 457.594 847.617 457.971C847.495 458.057 847.335 458.095 847.146 458.095C846.298 458.095 845.041 457.307 843.705 455.869C844.316 455.121 844.881 454.325 845.397 453.487C846.275 453.382 847.145 453.206 848.002 452.962C848.097 453.444 848.169 453.907 848.216 454.351ZM849.792 451.165C849.44 451.342 849.055 451.5 848.658 451.647C848.407 450.655 848.1 449.683 847.737 448.739C848.113 447.746 848.416 446.776 848.645 445.845C849.035 445.986 849.419 446.148 849.796 446.332C851.246 447.053 852.184 447.999 852.184 448.749C852.18 449.498 851.242 450.449 849.792 451.165Z" fill="url(#paint13_linear_16_227)"/>
<path d="M843.042 450.931C843.539 450.931 844.015 450.701 844.366 450.292C844.717 449.882 844.914 449.327 844.914 448.748C844.914 448.169 844.717 447.614 844.366 447.204C844.015 446.795 843.539 446.565 843.042 446.565C842.546 446.565 842.07 446.795 841.719 447.204C841.368 447.614 841.17 448.169 841.17 448.748C841.17 449.327 841.368 449.882 841.719 450.292C842.07 450.701 842.546 450.931 843.042 450.931Z" fill="url(#paint14_linear_16_227)"/>
<path d="M782.607 407.991H772.393C771.624 407.991 771 408.719 771 409.616V421.527C771 422.424 771.624 423.152 772.393 423.152H782.607C783.376 423.152 784 422.424 784 421.527V409.616C784 408.719 783.376 407.991 782.607 407.991ZM778.075 419.815C778.075 421.29 777.332 421.964 776.249 421.964C775.271 421.964 774.706 421.375 774.415 420.661L775.411 419.96C775.602 420.356 775.776 420.691 776.197 420.691C776.598 420.691 776.853 420.509 776.853 419.795V414.952H778.075V419.815ZM780.965 421.964C779.83 421.964 779.096 421.334 778.739 420.509L779.734 419.839C779.996 420.336 780.338 420.705 780.939 420.705C781.444 420.705 781.769 420.411 781.769 420.001C781.769 419.514 781.438 419.341 780.878 419.054L780.573 418.901C779.691 418.465 779.108 417.913 779.108 416.752C779.108 415.683 779.807 414.871 780.895 414.871C781.673 414.871 782.23 415.186 782.63 416.011L781.679 416.722C781.47 416.285 781.243 416.113 780.892 416.113C780.535 416.113 780.309 416.377 780.309 416.722C780.309 417.148 780.535 417.321 781.06 417.588L781.365 417.741C782.404 418.258 782.987 418.79 782.987 419.981C782.987 421.26 782.123 421.964 780.965 421.964Z" fill="url(#paint15_linear_16_227)"/>
<path d="M886.996 512.948C886.756 512.948 886.513 512.869 886.302 512.72L884.092 511.115C883.763 510.886 883.924 510.807 884.031 510.763C884.472 510.574 884.561 510.535 885.03 510.205C885.081 510.17 885.145 510.183 885.195 510.222L886.893 511.458C886.953 511.502 887.039 511.502 887.097 511.458L893.711 506.771C893.772 506.727 893.811 506.639 893.811 506.551V497.177C893.811 497.085 893.772 497.001 893.707 496.953L887.097 492.271C887.036 492.227 886.953 492.227 886.893 492.271L880.286 496.957C880.221 497.001 880.182 497.089 880.182 497.182V506.551C880.182 506.639 880.221 506.727 880.286 506.767L882.098 508.05C883.082 508.653 883.684 507.945 883.684 507.228V497.978C883.684 497.846 883.77 497.744 883.877 497.744H884.715C884.819 497.744 884.909 497.846 884.909 497.978V507.233C884.909 508.842 884.192 509.765 882.95 509.765C882.567 509.765 882.266 509.765 881.428 509.255L879.695 508.028C879.265 507.725 879 507.158 879 506.547V497.177C879 496.571 879.265 495.999 879.695 495.696L886.302 491.009C886.721 490.718 887.276 490.718 887.691 491.009L894.305 495.7C894.735 496.003 895 496.571 895 497.182V506.551C895 507.158 894.735 507.725 894.305 508.033L887.691 512.72C887.48 512.869 887.24 512.948 886.996 512.948ZM892.336 503.711C892.336 501.957 891.369 501.491 889.338 501.161C887.283 500.827 887.075 500.655 887.075 500.066C887.075 499.578 887.251 498.927 888.773 498.927C890.13 498.927 890.631 499.288 890.839 500.413C890.857 500.519 890.936 500.598 891.025 500.598H891.885C891.938 500.598 891.988 500.572 892.024 500.523C892.06 500.475 892.078 500.409 892.074 500.343C891.942 498.404 890.893 497.503 888.773 497.503C886.885 497.503 885.761 498.479 885.761 500.119C885.761 501.895 886.882 502.387 888.69 502.607C890.857 502.867 891.025 503.258 891.025 503.781C891.025 504.687 890.431 505.074 889.038 505.074C887.286 505.074 886.903 504.533 886.774 503.465C886.76 503.35 886.681 503.267 886.585 503.267H885.729C885.621 503.267 885.539 503.372 885.539 503.5C885.539 504.867 886.144 506.498 889.041 506.498C891.132 506.494 892.336 505.478 892.336 503.711Z" fill="url(#paint16_linear_16_227)"/>
<path fill-rule="evenodd" clip-rule="evenodd" d="M769.035 578.254C767.353 578.254 766 579.9 766 581.916C766 583.142 766.501 584.231 767.27 584.896C766.873 585.242 766.552 585.692 766.331 586.209C766.111 586.727 765.997 587.297 766 587.875C766 589.101 766.501 590.189 767.27 590.854C766.873 591.201 766.552 591.65 766.331 592.168C766.111 592.685 765.997 593.256 766 593.833C766 595.85 767.353 597.496 769.035 597.496C770.717 597.496 772.071 595.85 772.071 593.833V590.737C772.602 591.254 773.272 591.537 773.965 591.538C775.647 591.537 777 589.891 777 587.875C777.003 587.297 776.889 586.727 776.669 586.209C776.448 585.692 776.127 585.242 775.73 584.896C776.127 584.549 776.448 584.099 776.669 583.582C776.889 583.064 777.003 582.494 777 581.916C777 579.9 775.647 578.254 773.965 578.254H769.035ZM767.141 581.916C767.141 580.641 767.994 579.619 769.035 579.619H770.929V584.213H769.035C767.994 584.213 767.141 583.191 767.141 581.916ZM773.965 584.212H772.071V579.618H773.965C775.006 579.618 775.859 580.641 775.859 581.916C775.859 583.191 775.006 584.212 773.965 584.212ZM767.141 587.875C767.141 586.6 767.995 585.578 769.036 585.578H770.93V590.172H769.035C767.994 590.172 767.141 589.15 767.141 587.875H767.141ZM772.071 587.875C772.071 586.6 772.924 585.578 773.965 585.578C775.007 585.578 775.86 586.599 775.86 587.875C775.86 589.15 775.007 590.172 773.965 590.172C772.924 590.172 772.071 589.15 772.071 587.875H772.071ZM767.141 593.833C767.141 592.559 767.995 591.537 769.036 591.537H770.93V593.833C770.93 595.109 770.078 596.13 769.036 596.13C767.995 596.13 767.141 595.109 767.141 593.833Z" fill="url(#paint17_linear_16_227)"/>
<path d="M837.334 510.615H828.256C827.01 510.615 826 511.793 826 513.246V523.437C826 524.89 827.01 526.068 828.256 526.068H837.334C838.58 526.068 839.591 524.89 839.591 523.437V513.246C839.591 511.793 838.58 510.615 837.334 510.615Z" fill="url(#paint18_linear_16_227)"/>
<path d="M833.144 514.68L831.449 517.944L833.263 521.41C833.275 521.434 833.278 521.463 833.272 521.49C833.269 521.501 833.263 521.504 833.254 521.505L833.244 521.504L833.231 521.504C833.224 521.504 833.217 521.504 833.208 521.506H831.9L831.875 521.506C831.804 521.503 831.753 521.492 831.722 521.431C831.601 521.156 831.48 520.882 831.358 520.607C831.248 520.363 831.136 520.12 831.021 519.879L830.97 519.773C830.832 519.487 830.697 519.2 830.564 518.912H830.555C830.433 519.197 830.307 519.481 830.177 519.762C830.046 520.046 829.917 520.328 829.789 520.607C829.662 520.888 829.531 521.166 829.397 521.442C829.376 521.498 829.34 521.51 829.29 521.512L829.27 521.512H828.021L828.015 521.513L827.997 521.514C827.988 521.515 827.982 521.513 827.98 521.495C827.976 521.469 827.981 521.443 827.993 521.421L829.753 518.05L828.039 514.669C828.021 514.641 828.018 514.618 828.03 514.6C828.037 514.591 828.045 514.584 828.054 514.58C828.064 514.575 828.074 514.573 828.085 514.574H829.37C829.398 514.572 829.426 514.577 829.452 514.59C829.474 514.604 829.493 514.624 829.507 514.648C829.616 514.932 829.738 515.215 829.872 515.499C830.004 515.78 830.139 516.06 830.277 516.339C830.413 516.613 830.539 516.893 830.656 517.179H830.665C830.784 516.893 830.907 516.609 831.034 516.328C831.158 516.052 831.286 515.773 831.417 515.493C831.546 515.217 831.672 514.939 831.795 514.659C831.802 514.633 831.815 514.609 831.832 514.59C831.854 514.576 831.879 514.571 831.905 514.574H833.099C833.11 514.571 833.121 514.572 833.132 514.577C833.142 514.582 833.151 514.591 833.157 514.602C833.162 514.614 833.165 514.627 833.163 514.64C833.162 514.653 833.157 514.665 833.149 514.675L833.145 514.68L833.144 514.68ZM835.824 521.643L835.761 521.644C835.341 521.651 834.926 521.55 834.544 521.346C834.188 521.154 833.891 520.841 833.691 520.448C833.49 520.058 833.387 519.572 833.382 518.991L833.381 518.944C833.378 518.456 833.485 517.975 833.691 517.551C833.898 517.131 834.199 516.785 834.563 516.55L834.594 516.53C834.989 516.275 835.466 516.147 836.025 516.147L836.05 516.148L836.078 516.149L836.109 516.15L836.144 516.153L836.202 516.157L836.269 516.164L836.317 516.169V514.074C836.317 514.024 836.335 514 836.372 514H837.521C837.528 513.998 837.536 513.999 837.543 514.002C837.55 514.005 837.556 514.009 837.562 514.016C837.567 514.022 837.571 514.029 837.573 514.038C837.576 514.046 837.576 514.055 837.575 514.063V520.347C837.575 520.452 837.579 520.566 837.586 520.688L837.603 520.964L837.612 521.123C837.613 521.145 837.608 521.167 837.598 521.186C837.589 521.205 837.574 521.22 837.557 521.229C837.261 521.374 836.952 521.48 836.636 521.548C836.368 521.606 836.096 521.638 835.824 521.643ZM836.317 520.326V517.423C836.268 517.408 836.218 517.397 836.167 517.391C836.105 517.384 836.042 517.38 835.98 517.381C835.759 517.378 835.54 517.436 835.342 517.551C835.148 517.663 834.984 517.831 834.863 518.04C834.743 518.245 834.68 518.513 834.676 518.844L834.676 518.88C834.672 519.111 834.704 519.342 834.772 519.56C834.827 519.736 834.914 519.895 835.027 520.028C835.135 520.15 835.266 520.241 835.41 520.294C835.562 520.351 835.72 520.38 835.879 520.379C835.965 520.379 836.044 520.375 836.117 520.368C836.175 520.363 836.232 520.352 836.289 520.335L836.317 520.326Z" fill="black"/>
<path d="M723.624 421.445C724.693 420.729 725.759 420.007 726.831 419.299C727.849 418.626 729.046 419.246 729.277 420.555C729.41 421.312 729.121 422.13 728.535 422.528C726.613 423.834 724.689 425.135 722.755 426.416C722.156 426.812 721.54 426.739 720.994 426.253C720.44 425.76 720.265 425.08 720.395 424.288C720.544 423.686 720.883 423.283 721.346 422.981C722.112 422.483 722.865 421.958 723.624 421.445Z" fill="url(#paint19_linear_16_227)"/>
<path d="M724.409 420.925C723.343 420.203 722.274 419.488 721.212 418.759C720.203 418.067 720.065 416.548 720.922 415.66C721.417 415.147 722.169 415.031 722.758 415.423C724.689 416.711 726.617 418.004 728.535 419.317C729.129 419.723 729.383 420.383 729.295 421.176C729.206 421.982 728.788 422.499 728.135 422.764C727.613 422.915 727.144 422.774 726.689 422.457C725.936 421.932 725.169 421.434 724.409 420.925Z" fill="url(#paint20_linear_16_227)"/>
<path d="M714.693 420.414C714.009 420.868 713.325 421.32 712.641 421.775C712.242 422.04 711.846 422.315 711.444 422.577C710.635 423.104 709.673 422.795 709.214 421.867C708.776 420.981 709.028 419.833 709.807 419.302C711.714 418.005 713.625 416.717 715.543 415.443C716.131 415.052 716.741 415.101 717.285 415.568C717.86 416.061 718.047 416.755 717.919 417.568C717.839 417.765 717.791 417.995 717.671 418.15C717.476 418.403 717.255 418.644 717.008 418.821C716.246 419.37 715.466 419.886 714.693 420.414Z" fill="url(#paint21_linear_16_227)"/>
<path d="M713.909 420.922C714.587 421.386 715.265 421.851 715.945 422.314C716.342 422.585 716.744 422.847 717.139 423.122C717.935 423.676 718.187 424.801 717.727 425.729C717.288 426.614 716.31 426.934 715.526 426.412C713.609 425.136 711.697 423.85 709.792 422.55C709.208 422.151 708.939 421.51 709.014 420.727C709.093 419.901 709.514 419.364 710.182 419.088C710.368 419.07 710.563 419.003 710.738 419.046C711.023 419.117 711.313 419.22 711.568 419.38C712.356 419.876 713.13 420.406 713.909 420.922Z" fill="url(#paint22_linear_16_227)"/>
<path fill-rule="evenodd" clip-rule="evenodd" d="M127 480.295C123.134 480.295 120 484.211 120 489.041C120 493.871 123.134 497.788 127 497.788C130.866 497.788 134 493.871 134 489.041C134 484.211 130.866 480.295 127 480.295ZM127.082 494.156C124.825 494.156 122.998 491.868 122.998 489.041C122.998 486.215 124.825 483.926 127.082 483.926C128.184 483.926 129.106 484.434 129.813 485.259L128.661 486.701V486.698C128.233 486.186 127.689 485.924 127.082 485.924C125.734 485.924 124.639 487.35 124.639 489.038C124.639 490.726 125.734 492.156 127.082 492.156C128.304 492.156 129.136 491.28 129.308 490.077H127.082V488.082H130.923C130.974 488.425 131.002 488.782 131.002 489.156C131.002 492.079 129.44 494.156 127.082 494.156Z" fill="url(#paint23_linear_16_227)"/>
<path d="M31.2117 548.976H33.101V549.913H32.0018V550.851H33.101V551.788H31.2117V548.976ZM33.4785 548.976H35.3685V549.791H34.2692V549.954H35.3685V551.829H33.4785V550.973H34.5778V550.81H33.4785V548.976ZM35.7467 548.976H37.6353V549.791H36.536V549.954H37.6353V551.829H35.7467V550.973H36.846V550.81H35.7467V548.976Z" fill="url(#paint24_linear_16_227)"/>
<path fill-rule="evenodd" clip-rule="evenodd" d="M34.4935 569.308L29.4784 567.685L28 553.077H41L39.5223 567.683L34.4935 569.308ZM30.9228 559.69L31.0608 561.481H36.3886L36.2102 563.804L34.4957 564.344H34.4942L32.7826 563.805L32.6728 562.377H31.1294L31.3446 565.19L34.4935 566.209L37.6474 565.19L38.0317 560.17L38.0692 559.69L38.3466 556.063H30.6462L30.7863 557.855H36.6623L36.5222 559.69H30.9228Z" fill="url(#paint25_linear_16_227)"/>
<path d="M187.501 387.63H198.501V401.106H187.501V387.63ZM187 401.736H199V387H187V401.736ZM194.86 392.252C194.86 392.202 194.875 392.177 194.92 392.177H195.705C195.745 392.177 195.765 392.195 195.765 392.252V397.221C195.765 397.271 195.755 397.296 195.705 397.296H194.931C194.881 397.296 194.866 397.265 194.866 397.214V392.252H194.86H194.86ZM194.805 390.823C194.805 390.652 194.859 390.489 194.955 390.369C195.05 390.248 195.18 390.18 195.315 390.18C195.45 390.18 195.58 390.248 195.676 390.369C195.771 390.489 195.825 390.652 195.825 390.823C195.83 390.91 195.82 390.997 195.795 391.079C195.771 391.16 195.733 391.234 195.683 391.295C195.634 391.356 195.574 391.403 195.509 391.433C195.444 391.462 195.374 391.473 195.305 391.465C195.238 391.47 195.17 391.457 195.107 391.427C195.044 391.396 194.986 391.349 194.939 391.288C194.892 391.227 194.855 391.154 194.832 391.074C194.809 390.993 194.8 390.908 194.806 390.823H194.805ZM192.555 394.324C192.415 393.623 192.084 392.102 191.96 391.365H191.95C191.845 392.102 191.581 393.348 191.371 394.324H192.555ZM191.165 395.345L190.77 397.234C190.76 397.284 190.745 397.297 190.695 397.297H189.961C189.911 397.297 189.901 397.278 189.911 397.202L191.331 390.941C191.365 390.77 191.382 390.595 191.381 390.418C191.381 390.374 191.396 390.355 191.421 390.355H192.471C192.506 390.355 192.521 390.368 192.531 390.418L194.121 397.213C194.131 397.263 194.121 397.295 194.081 397.295H193.251C193.211 397.295 193.186 397.283 193.176 397.241L192.766 395.346H191.166L191.165 395.345Z" fill="url(#paint26_linear_16_227)"/>
<path fill-rule="evenodd" clip-rule="evenodd" d="M82 425.567C82 425.236 82.1107 424.918 82.3077 424.684C82.5047 424.45 82.7719 424.318 83.0505 424.318H93.5224C93.6604 424.318 93.7972 424.35 93.9248 424.413C94.0524 424.475 94.1684 424.567 94.2661 424.683C94.3638 424.799 94.4413 424.937 94.4941 425.089C94.5469 425.24 94.5741 425.403 94.574 425.567V438.014C94.5742 438.178 94.5471 438.341 94.4943 438.492C94.4416 438.644 94.3642 438.782 94.2665 438.898C94.1689 439.014 94.053 439.106 93.9254 439.169C93.7978 439.232 93.661 439.264 93.5229 439.264H83.0505C82.9125 439.264 82.7758 439.232 82.6484 439.169C82.5209 439.106 82.405 439.014 82.3075 438.898C82.2099 438.782 82.1326 438.644 82.0798 438.493C82.027 438.341 81.9999 438.179 82 438.015V425.567ZM86.977 430.017H88.6797V431.033C88.9254 430.449 89.5541 429.923 90.4989 429.923C92.3101 429.923 92.7393 431.087 92.7393 433.222V437.177H90.9064V433.708C90.9064 432.492 90.6606 431.806 90.0365 431.806C89.1706 431.806 88.8105 432.546 88.8105 433.708V437.177H86.977V430.017ZM83.8335 437.084H85.667V429.923H83.8335V437.083V437.084ZM85.9294 427.587C85.9328 427.774 85.9049 427.959 85.8472 428.133C85.7895 428.307 85.7032 428.465 85.5934 428.598C85.4836 428.732 85.3525 428.838 85.2078 428.91C85.063 428.982 84.9076 429.02 84.7506 429.02C84.5935 429.02 84.4381 428.982 84.2934 428.91C84.1486 428.838 84.0175 428.732 83.9077 428.598C83.7979 428.465 83.7116 428.307 83.6539 428.133C83.5962 427.959 83.5683 427.774 83.5718 427.587C83.5785 427.221 83.7057 426.873 83.926 426.616C84.1464 426.36 84.4423 426.217 84.7506 426.217C85.0588 426.217 85.3548 426.36 85.5751 426.616C85.7954 426.873 85.9226 427.221 85.9294 427.587Z" fill="url(#paint27_linear_16_227)"/>
<path d="M140.754 558.43L142.232 560.826L149.714 558.43M132.979 577.089L137.027 572.516L134.591 569.495M140.14 558.43L137.977 560.682L141.616 560.838M131.731 558.431L132.507 560.271L136.79 560.578M134.023 567.971L137.187 561.153L128 560.577M134.391 568.402L137.38 572.111L140.676 568.379L141.698 561.425L137.682 561.186L134.391 568.402Z" fill="url(#paint28_linear_16_227)"/>
<defs>
<linearGradient id="paint0_linear_16_227" x1="522.786" y1="85.5" x2="522.786" y2="363" gradientUnits="userSpaceOnUse">
<stop stop-color="#3D1768"/>
<stop offset="1" stop-color="#3D1768" stop-opacity="0"/>
</linearGradient>
<linearGradient id="paint1_linear_16_227" x1="487.256" y1="102.5" x2="487.256" y2="372.5" gradientUnits="userSpaceOnUse">
<stop stop-color="#3D1768"/>
<stop offset="1" stop-color="#3D1768" stop-opacity="0"/>
</linearGradient>
<linearGradient id="paint2_linear_16_227" x1="445.75" y1="118" x2="445.75" y2="389" gradientUnits="userSpaceOnUse">
<stop stop-color="#3D1768"/>
<stop offset="1" stop-color="#3D1768" stop-opacity="0"/>
</linearGradient>
<linearGradient id="paint3_linear_16_227" x1="367.252" y1="120" x2="367.252" y2="395.5" gradientUnits="userSpaceOnUse">
<stop stop-color="#3D1768"/>
<stop offset="1" stop-color="#3D1768" stop-opacity="0"/>
</linearGradient>
<linearGradient id="paint4_linear_16_227" x1="401.423" y1="118" x2="401.423" y2="405" gradientUnits="userSpaceOnUse">
<stop stop-color="#3D1768"/>
<stop offset="1" stop-color="#3D1768" stop-opacity="0"/>
</linearGradient>
<linearGradient id="paint5_linear_16_227" x1="437" y1="124" x2="437" y2="421" gradientUnits="userSpaceOnUse">
<stop stop-color="#3D1768"/>
<stop offset="1" stop-color="#3D1768" stop-opacity="0"/>
</linearGradient>
<radialGradient id="paint6_radial_16_227" cx="0" cy="0" r="1" gradientUnits="userSpaceOnUse" gradientTransform="translate(452 492) rotate(90) scale(165 271)">
<stop stop-color="#763CAC"/>
<stop offset="1" stop-color="#320F85" stop-opacity="0"/>
</radialGradient>
<linearGradient id="paint7_linear_16_227" x1="440" y1="351" x2="440" y2="531" gradientUnits="userSpaceOnUse">
<stop stop-color="#301080" stop-opacity="0.6"/>
<stop offset="1" stop-color="#7840AD" stop-opacity="0.36"/>
</linearGradient>
<linearGradient id="paint8_linear_16_227" x1="440.5" y1="360" x2="440.5" y2="629" gradientUnits="userSpaceOnUse">
<stop stop-opacity="0"/>
<stop offset="0.479167" stop-color="#763CAC"/>
</linearGradient>
<linearGradient id="paint9_linear_16_227" x1="445" y1="360" x2="445" y2="629" gradientUnits="userSpaceOnUse">
<stop stop-opacity="0"/>
<stop offset="0.479167" stop-color="#763CAC"/>
</linearGradient>
<linearGradient id="paint10_linear_16_227" x1="455.5" y1="360" x2="455.5" y2="629" gradientUnits="userSpaceOnUse">
<stop stop-opacity="0"/>
<stop offset="0.479167" stop-color="#763CAC"/>
</linearGradient>
<linearGradient id="paint11_linear_16_227" x1="445" y1="288" x2="445" y2="563" gradientUnits="userSpaceOnUse">
<stop offset="0.197917" stop-opacity="0"/>
<stop offset="1" stop-color="#763CAC"/>
</linearGradient>
<linearGradient id="paint12_linear_16_227" x1="444.5" y1="379" x2="444.5" y2="543" gradientUnits="userSpaceOnUse">
<stop offset="0.197917" stop-opacity="0"/>
<stop offset="1" stop-color="#763CAC"/>
</linearGradient>
<linearGradient id="paint13_linear_16_227" x1="843.047" y1="438.312" x2="843.047" y2="459.18" gradientUnits="userSpaceOnUse">
<stop stop-color="#693B93" stop-opacity="0.53"/>
<stop offset="1" stop-color="#693B93"/>
</linearGradient>
<linearGradient id="paint14_linear_16_227" x1="843.042" y1="446.565" x2="843.042" y2="450.931" gradientUnits="userSpaceOnUse">
<stop stop-color="#693B93" stop-opacity="0.53"/>
<stop offset="1" stop-color="#693B93"/>
</linearGradient>
<linearGradient id="paint15_linear_16_227" x1="777.5" y1="407.991" x2="777.5" y2="423.152" gradientUnits="userSpaceOnUse">
<stop stop-color="#693B93" stop-opacity="0.53"/>
<stop offset="1" stop-color="#693B93"/>
</linearGradient>
<linearGradient id="paint16_linear_16_227" x1="887" y1="490.791" x2="887" y2="512.948" gradientUnits="userSpaceOnUse">
<stop stop-color="#693B93" stop-opacity="0.53"/>
<stop offset="1" stop-color="#693B93"/>
</linearGradient>
<linearGradient id="paint17_linear_16_227" x1="771.5" y1="578.254" x2="771.5" y2="597.496" gradientUnits="userSpaceOnUse">
<stop stop-color="#693B93" stop-opacity="0.53"/>
<stop offset="1" stop-color="#693B93"/>
</linearGradient>
<linearGradient id="paint18_linear_16_227" x1="832.795" y1="510.615" x2="832.795" y2="526.068" gradientUnits="userSpaceOnUse">
<stop stop-color="#693B93" stop-opacity="0.53"/>
<stop offset="1" stop-color="#693B93"/>
</linearGradient>
<linearGradient id="paint19_linear_16_227" x1="724.832" y1="419.025" x2="724.832" y2="426.671" gradientUnits="userSpaceOnUse">
<stop stop-color="#693B93" stop-opacity="0.53"/>
<stop offset="1" stop-color="#693B93"/>
</linearGradient>
<linearGradient id="paint20_linear_16_227" x1="724.835" y1="415.189" x2="724.835" y2="422.825" gradientUnits="userSpaceOnUse">
<stop stop-color="#693B93" stop-opacity="0.53"/>
<stop offset="1" stop-color="#693B93"/>
</linearGradient>
<linearGradient id="paint21_linear_16_227" x1="713.479" y1="415.181" x2="713.479" y2="422.833" gradientUnits="userSpaceOnUse">
<stop stop-color="#693B93" stop-opacity="0.53"/>
<stop offset="1" stop-color="#693B93"/>
</linearGradient>
<linearGradient id="paint22_linear_16_227" x1="713.479" y1="419.032" x2="713.479" y2="426.664" gradientUnits="userSpaceOnUse">
<stop stop-color="#693B93" stop-opacity="0.53"/>
<stop offset="1" stop-color="#693B93"/>
</linearGradient>
<linearGradient id="paint23_linear_16_227" x1="127" y1="480.295" x2="127" y2="497.788" gradientUnits="userSpaceOnUse">
<stop stop-color="#693B93" stop-opacity="0.53"/>
<stop offset="1" stop-color="#693B93"/>
</linearGradient>
<linearGradient id="paint24_linear_16_227" x1="34.4235" y1="548.976" x2="34.4235" y2="551.829" gradientUnits="userSpaceOnUse">
<stop stop-color="#693B93" stop-opacity="0.53"/>
<stop offset="1" stop-color="#693B93"/>
</linearGradient>
<linearGradient id="paint25_linear_16_227" x1="34.5" y1="553.077" x2="34.5" y2="569.308" gradientUnits="userSpaceOnUse">
<stop stop-color="#693B93" stop-opacity="0.53"/>
<stop offset="1" stop-color="#693B93"/>
</linearGradient>
<linearGradient id="paint26_linear_16_227" x1="193" y1="387" x2="193" y2="401.736" gradientUnits="userSpaceOnUse">
<stop stop-color="#693B93" stop-opacity="0.53"/>
<stop offset="1" stop-color="#693B93"/>
</linearGradient>
<linearGradient id="paint27_linear_16_227" x1="88.287" y1="424.318" x2="88.287" y2="439.264" gradientUnits="userSpaceOnUse">
<stop stop-color="#693B93" stop-opacity="0.53"/>
<stop offset="1" stop-color="#693B93"/>
</linearGradient>
<linearGradient id="paint28_linear_16_227" x1="138.857" y1="558.43" x2="138.857" y2="577.089" gradientUnits="userSpaceOnUse">
<stop stop-color="#693B93" stop-opacity="0.53"/>
<stop offset="1" stop-color="#693B93"/>
</linearGradient>
</defs>
</svg>
